<?xml version="1.0" encoding="utf-8"?>
<!-- Generator: Adobe Illustrator 16.0.0, SVG Export Plug-In . SVG Version: 6.00 Build 0)  -->
<!DOCTYPE svg PUBLIC "-//W3C//DTD SVG 1.1//EN" "http://www.w3.org/Graphics/SVG/1.1/DTD/svg11.dtd">
<svg version="1.1" xmlns="http://www.w3.org/2000/svg" xmlns:xlink="http://www.w3.org/1999/xlink" x="0px" y="0px" width="512px"
	 height="512px" viewBox="0 0 512 512" enable-background="new 0 0 512 512" xml:space="preserve">
<g id="Capa_2">
</g>
<g id="Artwork">
</g>
<g id="Layer_3">
</g>
<g id="Layer_4">
</g>
<g id="Layer_5">
	<g>
		<path fill="white" d="M432.588,194.068c-10.875-10.875-25.334-16.863-40.713-16.863s-29.838,5.988-40.713,16.863
			c-9.706,9.705-15.52,22.265-16.658,35.785c-0.137,1.63,0.603,5.645-1.891,7.514c-1.438,1.08-11.33,6.685-31.051,18.633
			c-4.165,2.706-4.959,1.042-5.141,0.125c-0.209-1.054-0.461-2.108-0.756-3.161c-2.317-8.28-7.25-16.461-14.119-23.331
			c-7.267-7.266-15.62-12.091-23.764-14.278c-1.69-0.454-4.552-1.398-2.567-5.124c11.744-19.54,17.384-28.933,18.237-30.551
			c1.153-2.182,2.787-2.145,3.596-2.145c15.38,0,29.838-5.99,40.715-16.863c10.875-10.877,16.863-25.336,16.863-40.715
			s-5.988-29.838-16.863-40.713c-10.877-10.875-25.334-16.863-40.715-16.863c-15.379,0-29.837,5.988-40.713,16.863
			s-16.863,25.334-16.863,40.713s5.987,29.838,16.863,40.715c4.545,4.543,9.719,8.224,15.32,10.979
			c0.854,0.42,2.325,1.598,0.657,4.447c-11.995,20.172-61.254,102.716-82.993,134.369c-22.17,32.277-102.939,112.01-103.753,112.811
			c-3.935,3.877-4.009,10.237-0.103,14.143c2.329,2.328,4.728,1.292,6.38,2.944c1.652,1.651,0.573,4.321,2.944,6.378
			c2.064,1.793,4.483,2.877,7.018,2.877c2.584,0,5.166-0.994,7.123-2.98c0.793-0.805,79.689-80.756,111.451-103.049
			c35.794-25.125,114.936-72.602,134.323-84.178c3.902-2.664,5.536,0.973,6.414,2.604c2.635,4.897,6,9.437,10.044,13.479
			c10.875,10.875,25.334,16.863,40.713,16.863s29.838-5.988,40.713-16.863C455.037,253.047,455.037,216.518,432.588,194.068z
			 M233.473,119.957c0-11.641,4.531-22.582,12.764-30.813c8.23-8.232,19.173-12.764,30.813-12.764
			c11.641,0,22.584,4.531,30.814,12.764c8.23,8.23,12.764,19.172,12.764,30.813s-4.533,22.584-12.764,30.814
			s-19.174,12.764-30.814,12.764c-11.64,0-22.582-4.533-30.813-12.764C238.004,142.541,233.473,131.598,233.473,119.957z
			 M189.731,328.539c-6.785,5.543-17.836,16.293-20.159,13.97c-2.363-2.363,9.47-14.367,14.992-21.136
			c15.446-18.935,36.977-55.367,56.775-88.137c3.225-6.03,6.303-5.258,8.207-5.101c6.936,0.573,15.344,4.642,22.101,11.397
			c5.718,5.719,9.743,12.758,11.04,19.311c0.215,1.081,0.412,2.467,0.442,3.977c0.03,1.509-0.232,4.553-3.612,6.582
			C247.604,288.873,210.896,311.248,189.731,328.539z M422.689,265.596c-8.232,8.23-19.176,12.764-30.814,12.764
			c-11.641,0-22.584-4.533-30.814-12.764s-12.764-19.174-12.764-30.813c0-11.641,4.533-22.584,12.764-30.814
			s19.174-12.764,30.814-12.764c11.639,0,22.582,4.533,30.813,12.764C439.68,220.959,439.68,248.605,422.689,265.596z"/>
	</g>
</g>
</svg>
